<?xml version="1.0" encoding="utf-8"?>
<!-- Generator: Adobe Illustrator 16.0.3, SVG Export Plug-In . SVG Version: 6.00 Build 0)  -->
<!DOCTYPE svg PUBLIC "-//W3C//DTD SVG 1.1//EN" "http://www.w3.org/Graphics/SVG/1.1/DTD/svg11.dtd">
<svg version="1.1" id="Layer_1" xmlns="http://www.w3.org/2000/svg" xmlns:xlink="http://www.w3.org/1999/xlink" x="0px" y="0px"
	 width="329.215px" height="221.043px" viewBox="0 0 329.215 221.043" enable-background="new 0 0 329.215 221.043"
	 xml:space="preserve">
<path fill="#FFFFFF" d="M281.381,41.386C256.708,13.795,226.945,0,192.084,0c-5.617,0-11.1,0.362-16.45,1.076
	C170.291,0.362,164.817,0,159.209,0c-5.624,0-11.111,0.363-16.467,1.078C137.386,0.363,131.898,0,126.275,0
	C91.413,0,61.646,13.795,36.976,41.386C12.367,69.041,0,102.351,0,141.438c0,29.828,7.272,56.424,21.689,79.605
	C13.61,202.403,9.51,181.895,9.51,159.52c0-39.083,12.302-72.395,36.975-99.986c9.434-10.575,19.616-19.116,30.54-25.642
	c-2.438,2.374-4.83,4.871-7.175,7.494c-24.608,27.655-36.976,60.965-36.976,100.053c0,29.828,7.27,56.424,21.688,79.605
	c-8.077-18.641-12.18-39.148-12.18-61.524c0-39.083,12.366-72.395,36.973-99.986c9.436-10.575,19.619-19.116,30.543-25.642
	c-2.438,2.374-4.831,4.871-7.176,7.494c-24.608,27.655-36.913,60.965-36.913,100.053c0,29.828,7.208,56.424,21.627,79.605
	c-8.081-18.641-12.182-39.148-12.182-61.524c0-39.083,12.307-72.395,36.976-99.986c16.525-18.522,35.34-30.818,56.456-36.926
	c21.112,6.107,39.912,18.403,56.391,36.926c5.784,6.461,10.883,13.298,15.354,20.381c-6.028-13.92-14.354-26.721-24.858-38.529
	c-7.374-8.268-15.215-15.287-23.515-21.078c25.012,4.909,46.979,17.969,65.899,39.226c5.778,6.461,10.873,13.298,15.408,20.381
	c-6.088-13.92-14.354-26.721-24.918-38.529c-7.377-8.271-15.222-15.293-23.523-21.084c24.998,4.903,46.98,17.966,65.903,39.232
	c5.844,6.461,10.938,13.298,15.413,20.381C300.147,65.995,291.88,53.193,281.381,41.386z"/>
<g>
	<path fill="#FFFFFF" d="M104.473,115.213c2.157-2.157,3.431-3.398,3.819-3.722c0.971-0.819,2.017-1.456,3.139-1.909
		c1.121-0.453,2.233-0.68,3.333-0.68c1.855,0,3.452,0.54,4.79,1.618c1.337,1.079,2.232,2.643,2.686,4.692
		c2.222-2.589,4.099-4.288,5.631-5.097c1.531-0.809,3.106-1.214,4.725-1.214c1.575,0,2.972,0.405,4.191,1.214
		c1.218,0.809,2.184,2.131,2.896,3.964c0.475,1.251,0.712,3.215,0.712,5.89v12.75c0,1.855,0.141,3.128,0.421,3.818
		c0.216,0.475,0.615,0.879,1.197,1.214c0.583,0.334,1.532,0.501,2.848,0.501v1.165h-14.627v-1.165h0.615
		c1.272,0,2.265-0.248,2.977-0.744c0.496-0.345,0.853-0.895,1.068-1.65c0.086-0.367,0.13-1.413,0.13-3.139v-12.75
		c0-2.416-0.292-4.121-0.874-5.113c-0.842-1.38-2.19-2.071-4.045-2.071c-1.145,0-2.293,0.287-3.447,0.858
		c-1.154,0.572-2.551,1.634-4.19,3.188l-0.064,0.356l0.064,1.392v14.142c0,2.028,0.113,3.29,0.34,3.786
		c0.227,0.497,0.652,0.912,1.278,1.246c0.625,0.334,1.693,0.501,3.204,0.501v1.165h-14.983v-1.165c1.639,0,2.767-0.194,3.382-0.583
		c0.614-0.388,1.04-0.971,1.278-1.748c0.107-0.367,0.161-1.435,0.161-3.204v-12.75c0-2.416-0.355-4.153-1.067-5.21
		c-0.95-1.38-2.276-2.071-3.98-2.071c-1.165,0-2.319,0.313-3.463,0.938c-1.791,0.949-3.172,2.018-4.143,3.204v15.89
		c0,1.941,0.135,3.204,0.405,3.786c0.27,0.583,0.668,1.02,1.197,1.311c0.528,0.292,1.602,0.437,3.22,0.437v1.165h-14.66v-1.165
		c1.359,0,2.309-0.146,2.849-0.437c0.539-0.291,0.948-0.755,1.229-1.392c0.28-0.636,0.421-1.871,0.421-3.705v-11.327
		c0-3.257-0.098-5.361-0.292-6.311c-0.15-0.712-0.388-1.202-0.712-1.472c-0.323-0.27-0.766-0.405-1.326-0.405
		c-0.604,0-1.327,0.162-2.169,0.485l-0.485-1.165l8.932-3.625h1.392V115.213z"/>
	<path fill="#FFFFFF" d="M162.958,135.148c-3.042,2.352-4.951,3.711-5.728,4.077c-1.165,0.539-2.406,0.809-3.722,0.809
		c-2.05,0-3.737-0.701-5.064-2.104c-1.327-1.402-1.99-3.247-1.99-5.534c0-1.445,0.323-2.697,0.971-3.754
		c0.885-1.467,2.422-2.848,4.611-4.142c2.189-1.295,5.83-2.869,10.922-4.725v-1.165c0-2.956-0.469-4.983-1.407-6.084
		c-0.938-1.1-2.304-1.65-4.094-1.65c-1.359,0-2.438,0.367-3.236,1.101c-0.82,0.733-1.229,1.575-1.229,2.524l0.064,1.877
		c0,0.993-0.254,1.759-0.761,2.298c-0.507,0.54-1.17,0.809-1.99,0.809c-0.798,0-1.451-0.28-1.957-0.842
		c-0.508-0.561-0.761-1.327-0.761-2.297c0-1.855,0.949-3.56,2.848-5.113s4.562-2.33,7.993-2.33c2.632,0,4.79,0.442,6.473,1.327
		c1.272,0.669,2.211,1.715,2.815,3.139c0.388,0.928,0.582,2.827,0.582,5.696v10.064c0,2.827,0.054,4.558,0.162,5.194
		c0.107,0.637,0.285,1.063,0.534,1.278c0.247,0.216,0.533,0.324,0.857,0.324c0.345,0,0.647-0.075,0.906-0.227
		c0.453-0.28,1.326-1.068,2.621-2.362v1.812c-2.417,3.236-4.725,4.854-6.926,4.854c-1.057,0-1.898-0.367-2.523-1.1
		C163.303,138.168,162.979,136.917,162.958,135.148z M162.958,133.044V121.75c-3.258,1.294-5.361,2.212-6.31,2.751
		c-1.705,0.949-2.924,1.941-3.657,2.977s-1.101,2.168-1.101,3.398c0,1.553,0.464,2.843,1.392,3.867
		c0.928,1.025,1.995,1.537,3.204,1.537C158.125,136.28,160.283,135.202,162.958,133.044z"/>
	<path fill="#FFFFFF" d="M182.995,100.036v9.741h6.925v2.265h-6.925v19.223c0,1.92,0.274,3.215,0.825,3.884
		c0.55,0.669,1.256,1.003,2.119,1.003c0.712,0,1.402-0.221,2.071-0.664c0.668-0.442,1.187-1.095,1.554-1.958h1.262
		c-0.756,2.114-1.823,3.705-3.204,4.773c-1.381,1.068-2.805,1.602-4.271,1.602c-0.992,0-1.964-0.275-2.912-0.825
		c-0.95-0.55-1.65-1.337-2.104-2.362c-0.453-1.024-0.68-2.605-0.68-4.741v-19.935h-4.692v-1.068
		c1.186-0.474,2.399-1.278,3.641-2.411c1.24-1.132,2.346-2.476,3.316-4.029c0.496-0.82,1.187-2.319,2.071-4.498H182.995z"/>
	<path fill="#FFFFFF" d="M200.045,93.401v21.682c2.395-2.632,4.293-4.32,5.695-5.064c1.402-0.745,2.805-1.117,4.207-1.117
		c1.683,0,3.128,0.464,4.337,1.392c1.208,0.928,2.104,2.384,2.686,4.369c0.409,1.381,0.615,3.905,0.615,7.573v10.485
		c0,1.877,0.15,3.161,0.453,3.851c0.215,0.518,0.582,0.928,1.1,1.229c0.518,0.302,1.467,0.453,2.848,0.453v1.165h-14.562v-1.165
		h0.68c1.381,0,2.341-0.21,2.881-0.631c0.538-0.421,0.916-1.041,1.132-1.861c0.065-0.345,0.098-1.359,0.098-3.042v-10.485
		c0-3.236-0.168-5.361-0.502-6.375c-0.335-1.014-0.868-1.774-1.602-2.282c-0.733-0.506-1.618-0.76-2.653-0.76
		c-1.058,0-2.158,0.28-3.302,0.841s-2.513,1.694-4.109,3.398v15.663c0,2.028,0.113,3.29,0.34,3.786
		c0.227,0.497,0.647,0.912,1.262,1.246c0.615,0.334,1.678,0.501,3.188,0.501v1.165h-14.691v-1.165c1.315,0,2.351-0.205,3.106-0.615
		c0.432-0.215,0.776-0.625,1.035-1.23c0.259-0.604,0.389-1.833,0.389-3.689v-26.828c0-3.387-0.081-5.469-0.243-6.246
		c-0.161-0.776-0.409-1.305-0.744-1.585c-0.334-0.28-0.782-0.421-1.343-0.421c-0.453,0-1.187,0.173-2.2,0.518l-0.453-1.132
		l8.867-3.625H200.045z"/>
	<path fill="#FFFFFF" d="M228.402,120.941c-0.021,4.401,1.046,7.854,3.204,10.356c2.157,2.503,4.692,3.754,7.604,3.754
		c1.941,0,3.63-0.534,5.064-1.602s2.638-2.896,3.608-5.485l1.003,0.647c-0.453,2.956-1.769,5.647-3.947,8.074
		c-2.18,2.427-4.909,3.641-8.188,3.641c-3.561,0-6.607-1.386-9.143-4.159c-2.535-2.772-3.803-6.499-3.803-11.181
		c0-5.07,1.3-9.023,3.9-11.861c2.6-2.836,5.862-4.255,9.789-4.255c3.322,0,6.052,1.095,8.188,3.285
		c2.136,2.19,3.203,5.119,3.203,8.786H228.402z M228.402,119.064h13.722c-0.108-1.898-0.335-3.236-0.68-4.013
		c-0.54-1.208-1.344-2.157-2.411-2.848c-1.068-0.69-2.185-1.035-3.35-1.035c-1.791,0-3.393,0.696-4.806,2.087
		C229.464,114.646,228.639,116.583,228.402,119.064z"/>
	<path fill="#FFFFFF" d="M260.31,115.213c2.157-2.157,3.431-3.398,3.819-3.722c0.971-0.819,2.017-1.456,3.139-1.909
		c1.121-0.453,2.233-0.68,3.333-0.68c1.855,0,3.452,0.54,4.79,1.618c1.337,1.079,2.232,2.643,2.686,4.692
		c2.222-2.589,4.099-4.288,5.631-5.097c1.531-0.809,3.106-1.214,4.725-1.214c1.575,0,2.972,0.405,4.191,1.214
		c1.218,0.809,2.184,2.131,2.896,3.964c0.475,1.251,0.712,3.215,0.712,5.89v12.75c0,1.855,0.141,3.128,0.421,3.818
		c0.216,0.475,0.615,0.879,1.197,1.214c0.583,0.334,1.532,0.501,2.848,0.501v1.165H286.07v-1.165h0.615
		c1.272,0,2.265-0.248,2.977-0.744c0.496-0.345,0.853-0.895,1.068-1.65c0.086-0.367,0.13-1.413,0.13-3.139v-12.75
		c0-2.416-0.292-4.121-0.874-5.113c-0.842-1.38-2.19-2.071-4.045-2.071c-1.145,0-2.293,0.287-3.447,0.858
		c-1.154,0.572-2.551,1.634-4.19,3.188l-0.064,0.356l0.064,1.392v14.142c0,2.028,0.113,3.29,0.34,3.786
		c0.227,0.497,0.652,0.912,1.278,1.246c0.625,0.334,1.693,0.501,3.204,0.501v1.165h-14.983v-1.165c1.639,0,2.767-0.194,3.382-0.583
		c0.614-0.388,1.04-0.971,1.278-1.748c0.107-0.367,0.161-1.435,0.161-3.204v-12.75c0-2.416-0.355-4.153-1.067-5.21
		c-0.95-1.38-2.276-2.071-3.98-2.071c-1.165,0-2.319,0.313-3.463,0.938c-1.791,0.949-3.172,2.018-4.143,3.204v15.89
		c0,1.941,0.135,3.204,0.405,3.786c0.27,0.583,0.668,1.02,1.197,1.311c0.528,0.292,1.602,0.437,3.22,0.437v1.165h-14.66v-1.165
		c1.359,0,2.309-0.146,2.849-0.437c0.539-0.291,0.948-0.755,1.229-1.392c0.28-0.636,0.421-1.871,0.421-3.705v-11.327
		c0-3.257-0.098-5.361-0.292-6.311c-0.15-0.712-0.388-1.202-0.712-1.472c-0.323-0.27-0.766-0.405-1.326-0.405
		c-0.604,0-1.327,0.162-2.169,0.485l-0.485-1.165l8.932-3.625h1.392V115.213z"/>
	<path fill="#FFFFFF" d="M318.794,135.148c-3.042,2.352-4.951,3.711-5.728,4.077c-1.165,0.539-2.406,0.809-3.722,0.809
		c-2.05,0-3.737-0.701-5.064-2.104c-1.327-1.402-1.99-3.247-1.99-5.534c0-1.445,0.323-2.697,0.971-3.754
		c0.885-1.467,2.422-2.848,4.611-4.142c2.189-1.295,5.83-2.869,10.922-4.725v-1.165c0-2.956-0.469-4.983-1.407-6.084
		c-0.938-1.1-2.304-1.65-4.094-1.65c-1.359,0-2.438,0.367-3.236,1.101c-0.82,0.733-1.229,1.575-1.229,2.524l0.064,1.877
		c0,0.993-0.254,1.759-0.761,2.298c-0.507,0.54-1.17,0.809-1.99,0.809c-0.798,0-1.451-0.28-1.957-0.842
		c-0.508-0.561-0.761-1.327-0.761-2.297c0-1.855,0.949-3.56,2.848-5.113s4.562-2.33,7.993-2.33c2.632,0,4.79,0.442,6.473,1.327
		c1.272,0.669,2.211,1.715,2.815,3.139c0.388,0.928,0.582,2.827,0.582,5.696v10.064c0,2.827,0.054,4.558,0.162,5.194
		c0.107,0.637,0.285,1.063,0.534,1.278c0.247,0.216,0.533,0.324,0.857,0.324c0.345,0,0.647-0.075,0.906-0.227
		c0.453-0.28,1.326-1.068,2.621-2.362v1.812c-2.417,3.236-4.725,4.854-6.926,4.854c-1.057,0-1.898-0.367-2.523-1.1
		C319.14,138.168,318.816,136.917,318.794,135.148z M318.794,133.044V121.75c-3.258,1.294-5.361,2.212-6.31,2.751
		c-1.705,0.949-2.924,1.941-3.657,2.977s-1.101,2.168-1.101,3.398c0,1.553,0.464,2.843,1.392,3.867
		c0.928,1.025,1.995,1.537,3.204,1.537C313.961,136.28,316.12,135.202,318.794,133.044z"/>
</g>
</svg>
